<svg width="50" height="50" viewBox="0 0 50 50" fill="none" xmlns="http://www.w3.org/2000/svg">
<g clip-path="url(#clip0_127_38)">
<path d="M0 5C0 2.23858 2.23858 0 5 0H45C47.7614 0 50 2.23858 50 5V45C50 47.7614 47.7614 50 45 50H5C2.23858 50 0 47.7614 0 45V5Z" fill="#AED5E0"/>
<mask id="mask0_127_38" style="mask-type:luminance" maskUnits="userSpaceOnUse" x="9" y="14" width="32" height="22">
<path d="M36 14C38.7614 14 41 16.2386 41 19V36H14C11.2386 36 9 33.7614 9 31V14H36Z" fill="white"/>
</mask>
<g mask="url(#mask0_127_38)">
<path d="M10.0675 32.7178L24.129 15.0682C24.2431 14.9236 24.3797 14.8087 24.5307 14.7302C24.6817 14.6517 24.8441 14.6113 25.0081 14.6113C25.1721 14.6113 25.3345 14.6517 25.4855 14.7302C25.6365 14.8087 25.7731 14.9236 25.8871 15.0682C26.1209 15.3638 26.2516 15.7593 26.2516 16.171C26.2516 16.5828 26.1209 16.9783 25.8871 17.2739L11.8256 34.9235C11.7116 35.0681 11.575 35.183 11.424 35.2615C11.273 35.34 11.1106 35.3804 10.9466 35.3804C10.7826 35.3804 10.6202 35.34 10.4692 35.2615C10.3182 35.183 10.1816 35.0681 10.0675 34.9235C9.83377 34.628 9.70303 34.2324 9.70303 33.8207C9.70303 33.409 9.83377 33.0134 10.0675 32.7178Z" fill="white"/>
<path d="M38.1778 34.9236L24.1163 17.2739C23.8826 16.9783 23.7518 16.5828 23.7518 16.171C23.7518 15.7593 23.8826 15.3638 24.1163 15.0682C24.2304 14.9237 24.367 14.8087 24.518 14.7302C24.669 14.6517 24.8314 14.6113 24.9954 14.6113C25.1594 14.6113 25.3218 14.6517 25.4728 14.7302C25.6238 14.8087 25.7604 14.9237 25.8744 15.0682L39.9359 32.7178C40.1693 33.0139 40.2994 33.4098 40.2988 33.8215C40.2983 34.2332 40.167 34.6285 39.9328 34.9236C39.8188 35.0675 39.6824 35.1819 39.5316 35.2601C39.3809 35.3382 39.2189 35.3784 39.0553 35.3784C38.8917 35.3784 38.7297 35.3382 38.579 35.2601C38.4282 35.1819 38.2918 35.0675 38.1778 34.9236Z" fill="white"/>
</g>
</g>
<defs>
<clipPath id="clip0_127_38">
<rect width="50" height="50" fill="white"/>
</clipPath>
</defs>
</svg>
